<svg data-v-423bf9ae="" xmlns="http://www.w3.org/2000/svg" viewBox="0 0 246 90" class="iconLeft"><!----><!----><!----><g data-v-423bf9ae="" id="24ff263f-ba00-4d08-9dd4-dfc9da3c1ab4" fill="#629A40" transform="matrix(5.639098067841383,0,0,5.639098067841383,70.10387965224864,-1.9736834614938772)"><path d="M1.12 13.51L1.12 3.71L7.10 3.71L7.10 4.91L2.45 4.91L2.45 7.78L6.15 7.78L6.15 8.99L2.45 8.99L2.45 12.31L7.22 12.31L7.22 13.51L1.12 13.51ZM10.56 13.65L10.56 13.65Q9.74 13.65 9.13 13.46L9.13 13.46L9.13 13.46Q8.53 13.27 8.20 13.05L8.20 13.05L8.36 11.83L8.36 11.83Q8.64 12.08 9.22 12.31L9.22 12.31L9.22 12.31Q9.80 12.53 10.50 12.53L10.50 12.53L10.50 12.53Q11.16 12.53 11.52 12.31L11.52 12.31L11.52 12.31Q11.87 12.08 11.87 11.68L11.87 11.68L11.87 11.68Q11.87 11.20 11.48 10.96L11.48 10.96L11.48 10.96Q11.09 10.71 10.50 10.54L10.50 10.54L10.50 10.54Q9.86 10.37 9.42 10.18L9.42 10.18L9.42 10.18Q8.97 10.00 8.66 9.60L8.66 9.60L8.66 9.60Q8.34 9.21 8.34 8.57L8.34 8.57L8.34 8.57Q8.34 7.69 8.97 7.10L8.97 7.10L8.97 7.10Q9.60 6.51 10.92 6.51L10.92 6.51L10.92 6.51Q11.52 6.51 11.94 6.63L11.94 6.63L11.94 6.63Q12.36 6.75 12.78 6.96L12.78 6.96L12.63 8.11L12.63 8.11Q12.29 7.83 11.89 7.67L11.89 7.67L11.89 7.67Q11.48 7.50 10.95 7.50L10.95 7.50L10.95 7.50Q10.33 7.50 9.97 7.73L9.97 7.73L9.97 7.73Q9.62 7.97 9.62 8.43L9.62 8.43L9.62 8.43Q9.62 8.74 9.79 8.93L9.79 8.93L9.79 8.93Q9.95 9.11 10.26 9.24L10.26 9.24L10.26 9.24Q10.57 9.37 11.21 9.56L11.21 9.56L11.21 9.56Q12.01 9.80 12.59 10.23L12.59 10.23L12.59 10.23Q13.17 10.67 13.17 11.61L13.17 11.61L13.17 11.61Q13.17 12.45 12.58 13.05L12.58 13.05L12.58 13.05Q11.98 13.65 10.56 13.65L10.56 13.65ZM19.22 3.01L20.48 3.01L20.48 13.51L19.36 13.51L19.22 12.67L19.22 12.67Q18.87 13.15 18.31 13.40L18.31 13.40L18.31 13.40Q17.75 13.65 17.12 13.65L17.12 13.65L17.12 13.65Q16.25 13.65 15.54 13.17L15.54 13.17L15.54 13.17Q14.83 12.70 14.41 11.89L14.41 11.89L14.41 11.89Q14 11.07 14 10.09L14 10.09L14 10.09Q14 9.14 14.38 8.32L14.38 8.32L14.38 8.32Q14.77 7.49 15.48 7L15.48 7L15.48 7Q16.20 6.51 17.12 6.51L17.12 6.51L17.12 6.51Q17.74 6.51 18.28 6.73L18.28 6.73L18.28 6.73Q18.83 6.96 19.22 7.42L19.22 7.42L19.22 3.01ZM17.35 12.53L17.35 12.53Q17.85 12.53 18.31 12.27L18.31 12.27L18.31 12.27Q18.77 12.01 19.07 11.47L19.07 11.47L19.07 11.47Q19.36 10.92 19.36 10.09L19.36 10.09L19.36 10.09Q19.36 9.32 19.07 8.76L19.07 8.76L19.07 8.76Q18.77 8.20 18.30 7.92L18.30 7.92L18.30 7.92Q17.84 7.63 17.35 7.63L17.35 7.63L17.35 7.63Q16.39 7.63 15.84 8.32L15.84 8.32L15.84 8.32Q15.29 9.02 15.29 10.09L15.29 10.09L15.29 10.09Q15.29 11.13 15.85 11.83L15.85 11.83L15.85 11.83Q16.41 12.53 17.35 12.53L17.35 12.53ZM22.18 5.11L22.18 3.71L23.44 3.71L23.44 5.11L22.18 5.11ZM22.18 13.51L22.18 6.65L23.44 6.65L23.44 13.51L22.18 13.51ZM25.62 13.51L25.62 7.63L24.43 7.63L24.60 6.65L25.62 6.65L25.62 5.03L25.62 5.03Q25.62 4.09 26.12 3.55L26.12 3.55L26.12 3.55Q26.61 3.01 27.55 3.01L27.55 3.01L27.55 3.01Q28.17 3.01 28.64 3.19L28.64 3.19L28.45 4.26L28.45 4.26Q28.11 4.13 27.75 4.13L27.75 4.13L27.75 4.13Q26.88 4.13 26.88 5.11L26.88 5.11L26.88 6.65L28.73 6.65L28.73 7.63L26.88 7.63L26.88 13.51L25.62 13.51ZM29.78 5.11L29.78 3.71L31.04 3.71L31.04 5.11L29.78 5.11ZM29.78 13.51L29.78 6.65L31.04 6.65L31.04 13.51L29.78 13.51Z"></path></g><!----><g data-v-423bf9ae="" id="6603a99b-1847-43f6-9a37-cb126cdf8625" transform="matrix(1.2064354514775164,0,0,1.2064354514775164,-31.762945962548848,-15.86944797185609)" stroke="none" fill="#629A40"><path d="M61.1 72.1L61 72c0-.1 0-.1-.1-.2 0 0-.1-.1-.2-.1h-.1c-.1-.1-.2-.1-.3-.2-.1-.3-.4-.4-.5-.5h-.1c0-.1-.1-.2-.4-.2h-.1s-.1 0-.1.1c0 0-.2 0-.2.1H58l-.6.3c-.2.1-.4.2-.6.2h-.1c-.1 0-.2 0-.2.1 0 0-.1 0-.2.1s-.1.2-.1.3h-.1c-.1 0-.2 0-.2.1-.1.1-.2.2-.3.2-.1 0-.1.1-.2.1s-.1.1-.1.2c-.1.2 0 .3.1.4 0 .1 0 .2.1.3v.5c0 .8 0 1.6.2 2.1v-.1h.2-.2c0 .1 0 .2.1.3 0 .1.1.2.1.2.1.2.1.3.3.5.2.2.4.3.5.3h.2l.1.1c.2.1.4.1.5.1.3 0 .5-.1.7-.1.3-.1.5-.1.9-.1.1 0 .2 0 .2-.1 0 0 .1-.1.2-.1l.1-.1c.1 0 .1-.1.1-.1h.1c.1 0 .1 0 .2-.1l.2-.2v-.1c.1 0 .3 0 .4-.2V76v-.4c.1-.1.1-.2.1-.2 0-.1.1-.1.1-.1.1-.1.1-.2.1-.3.1-.2.1-.5.1-.8v-.5-.3-.1h.1c.1-.1.2-.2.1-.4 0 0 0-.1-.1-.1 0-.2.1-.5 0-.7zM52 73.3v-.2-.8-.7c.1-.1.1-.4.1-.4v-.1-.1c0-.1.1-.3-.2-.5h-.1c-.1-.1-.3-.2-.6-.2-.1-.1-.3-.2-.4-.2h-.1c0-.1-.1-.1-.2-.2-.3-.2-.7-.1-1 0-.3.1-.5.1-.7.1-.1 0-.2 0-.3.1h-.1c-.1 0-.1 0-.2.1-.1 0-.1.1-.2.1h-.2c-.2 0-.2.1-.3.1h-.1c-.1 0-.2 0-.3.1-.1.1-.1.2-.1.3v.1c-.2.1-.2.2-.3.3 0 .1-.1.1-.1.1-.1 0-.1.1-.1.2v.8c-.1 0-.1.1-.1.1v.2l-.1.1v.4c0 .1 0 .2.1.2 0 0 0 .1-.1.2 0 .2 0 .4.1.7v.1c-.1.1 0 .2 0 .3v.2c0 .1.1.2 0 .4 0 .1 0 .2.1.2s.1.1.2.2l.1.1.1.1.1.1c.1.1.2.1.4.2h.1c0 .1.1.1.2.2.3.1.5.2.8.2.2 0 .4 0 .6-.1.4-.1.7-.1 1-.2.2-.1.3-.2.4-.3.2-.2.3-.2.5-.2.1 0 .2 0 .2-.1s.1-.1 0-.2c.1 0 .1 0 .2-.1s.1-.2.2-.2c0 0 0-.1.1-.1.1-.1.1-.2.1-.2-.1-.2 0-.5.1-.8.1-.2.1-.4.1-.5.1 0 .1 0 0-.2 0 .1 0 .1 0 0zM43.6 72.1c0-.1-.1-.2-.2-.2s-.2-.2-.2-.3c0-.2-.2-.3-.3-.4l-.1-.1c0-.1-.1-.1-.1-.2s0-.2-.1-.2c-.1-.1-.1-.1-.2-.1s-.1 0-.1-.1l-.1-.1c-.1-.1-.2-.2-.4-.3 0 0-.1 0-.1-.1l-.1-.1h-.1c-.1-.1-.3-.1-.4-.2H41c-.2 0-.4.1-.6.1h-.2c-.2 0-.3.1-.4.2h-.1c-.2 0-.3.1-.5.2-.1 0-.2.1-.2.2h-.2-.1c-.1 0-.1.1-.2.2h-.2c-.1 0-.2.1-.2.2s-.2.3-.2.4l-.1.1c-.1.1-.2.2-.2.4l-.1.1c-.1.3-.1.7 0 1v.2c0 .1 0 .2.1.3.1.1.1.1.2.1 0 .1.1.1.1.1s0 .1.1.2l.1.1c0 .1 0 .1.1.2l.2.2c.1.2.3.5.5.5l.2.2.1.1.1.1c.1.1.2.2.3.2l.1.1c.2 0 .3.1.5.1h.5c.3 0 .5-.1.8 0 .1 0 .1 0 .2-.1h.1c.2-.1.4-.2.5-.3l.1-.1c.3 0 .5-.2.6-.3.1-.1.1-.1.2-.1s.2-.1.2-.2c0-.2.1-.3.1-.5.1-.3.2-.6.2-1 0-.1 0-.2-.1-.3v-.1-.4zM51.7 61.8l-.1-.1-.1-.2c-.1-.1-.2-.2-.3-.4 0-.1-.1-.1-.1-.2h-.2c-.1 0-.1 0-.2-.1l-.1-.1c-.1-.1-.2-.1-.3-.1-.1 0-.1-.1-.2-.1-.2-.1-.3-.3-.7-.3h-.7l-.1-.1c-.1 0-.3 0-.3.1h-.4c-.1 0-.1.1-.2.1s-.2.1-.2.1c-.1 0-.2.1-.3.1-.1 0-.1 0-.2.1s-.2.1-.4.1h-.2c-.1 0-.1 0-.2.1s-.1.2-.2.3c-.1.2-.2.3-.3.3-.1 0-.2.1-.2.2-.1.3-.2.7-.2 1 0 .2 0 .3-.1.4 0 .1 0 .2.1.3v.1c0 .1 0 .1.1.2l.1.1.1.2s.1.1.1.2 0 .1.1.3c0 .1.1.1.1.1v.3c0 .1.1.1.1.2l.1.1c.1.1.2.1.3.2 0 0 0 .1.1.1.2.2.5.3.9.4.2.2.4.2.7.2.2 0 .3 0 .4-.1h.5c.2 0 .4 0 .5-.1.1 0 .1-.1.2-.2h.2c.1 0 .1-.1.2-.1h.1c.2 0 .7-.3.8-.6.1-.1.3-.2.3-.4l.1-.1c.1-.2.1-.4.1-.6v-.1l.1-.1c.1-.6.1-.9 0-1.3.4-.3.2-.4.1-.5zM37.6 64.8c.2 0 .4.1.6.1.3.1.7.1.9.1h.2c.2.1.4.2.6.2.1 0 .1 0 .2-.1s.2-.1.4-.1h.1c.1 0 .1-.1.2-.1h.2c.1 0 .3-.1.4-.1.1 0 .1-.1.2-.1h.1c.1 0 .1 0 .2-.1.1 0 .1-.1.1-.1v-.1c.2-.2.3-.3.4-.5 0-.1.1-.1.1-.2s.1-.1.1-.2c.1-.5.1-.8 0-1.1.1-.4-.1-.7-.2-.9 0-.1-.1-.2-.1-.2-.3-.3-.3-.3-.4-.3-.1 0-.1-.1-.2-.1-.1-.1-.2-.1-.4-.2 0-.1 0-.2-.1-.3-.1-.1-.2-.1-.3-.1h-.1c-.1-.1-.2-.1-.4-.1-.1 0-.2 0-.5.1-.2.1-.4.1-.5.2h-.1-.1c-.1 0-.2 0-.2.1h-.4c-.4.1-.9.3-1.2.5-.1 0-.2 0-.2.1-.1.1-.1.2-.1.3-.1 0-.1.1-.2.1-.1.1-.1.2-.1.3v.1c-.1 0-.2.1-.2.2-.1.9.1 1.5.4 1.9 0 .2.1.4.2.5l.1.1c.1 0 .2.1.3.1zM61.9 60.5v-.2s0-.1-.1-.1c-.1-.2-.2-.2-.3-.2l-.1-.1-.2-.2c-.1 0-.1-.1-.2-.2-.2-.2-.3-.3-.6-.4H59.8s-.1-.1-.3-.1c-.1 0-.1 0-.2.1-.2.1-.5.1-.7.2l-1.2.3c-.1 0-.1 0-.2.1-.1.2-.1.3-.2.3l-.3.3-.1.1c-.1.1-.3.2-.4.4l-.1.1v.5s-.1.1-.1.2V62.4s0 .1-.1.2c0 .3 0 .5.1.7v.5c0 .1.1.1.2.2v.1c0 .1 0 .2.1.3l.1.1s0 .1.1.1c.1.1.2.1.3.1 0 .1.1.1.2.2h.1c.1.1.2.1.4.2l.1.1h.4c.2 0 .4 0 .5-.1.3 0 .5-.1.8 0h.2l.1-.1h.1c.1-.1.2-.2.3-.2h.2c.1 0 .1-.1.2-.2h.1c.1 0 .2 0 .3-.1.1 0 .1-.1.2-.2.1 0 .2 0 .3-.1 0-.1.1-.1.1-.2.1-.1.1-.1.1-.2v-.1-.1c0-.1 0-.1.1-.2v-.1c0-.1.1-.2.1-.3v-.1c.1-.3.1-.4.1-.6v-.2-.1c0-.1.1-.1.1-.2v-.5-.3c0-.1.1-.2.1-.3 0 0-.1-.1-.1-.2zM61.9 52.2c0-.1-.1-.3-.3-.4 0-.1-.1-.2-.3-.2l-.1-.1-.1-.1-.1-.1-.2-.2h-.2-.1s-.1-.1-.2-.1h-.2l-.1-.1c-.3-.1-.5-.1-1-.1l-.4.1h-.4s-.1 0-.2.1h-.3c-.4 0-.8.1-1.1.3h-.2c-.1.1-.2.1-.3.3 0 .1-.1.1-.1.2h-.1c-.1 0-.2.1-.2.2s-.1.1-.1.2c-.1 0-.1.1-.1.1-.1.1 0 .3 0 .4v.1s-.1.1-.1.2c-.1 0-.1.1-.1.2s0 .2.1.3v.1s0 .1-.1.1c0 .1-.1.1-.1.2-.1.2 0 .4 0 .5V55s0 .1.1.1c0 .1.1.2.2.3 0 0 .1.1.2.1 0 0 0 .1.1.1h.1c0 .1 0 .1.1.2s.1.1.2.1v.1c0 .1.1.1.2.1.3.1.6.2.8.2.2 0 .4 0 .6-.1.2.1.3.1.6.1.1 0 .1 0 .2-.1s.3-.1.4-.2c.1 0 .3-.1.4-.1.1 0 .1-.1.1-.1.2 0 .3 0 .4-.1.1 0 .2-.1.4 0 .1 0 .2 0 .2-.1.1-.1.1-.2.1-.2v-.1c.1 0 .3-.1.3-.2l.1-.1c.1 0 .1-.1.1-.2s0-.3.1-.4c.1-.1.1-.3.1-.5.2-.2.2-.5.2-.7 0-.1 0-.3.1-.4.1-.1.1-.1.1-.2s-.1-.1-.1-.2c.4-.1.4-.2.3-.2zM52 51.5c-.1-.2-.3-.3-.4-.3h-.1c-.1-.1-.3-.2-.4-.3l-.1-.1h-.1c-.1 0-.2-.1-.4-.1-.3-.3-.6-.3-1.1-.3-.1 0-.4.1-.8.2-.2.1-.3.1-.5.1h-.2c-.1 0-.2 0-.3.1-.1 0-.1.1-.2.1h-.1c-.1 0-.2 0-.3.1-.1 0-.1.1-.1.1l-.1.1c-.2.2-.5.4-.5.7-.1.1-.2.2-.2.4v.3l-.1.1c-.1.4.1.6.2.7v.2l.1.1v.1c0 .1.1.1.1.1l.3.6.2.2c.1.1.1.1.2.1 0 .1 0 .2.1.2 0 0 .1.1.2.1 0 .1.1.2.2.2l.1.1c.1.1.3.1.6.1h.2l.1.1c.3.1.6.1.9.1h.7c.1 0 .1 0 .2-.1.3-.3.8-.4 1.2-.6l.2-.1c.1 0 .1-.1.2-.2 0-.3.1-.5.2-.7l.3-.9c.2-.1.2-.4.2-.5v-.1s.1-.1.1-.2v-.2-.3c0-.1 0-.2-.1-.2s-.4-.1-.7-.1zM36.9 54.4c.1 0 .1.1.2.1s.2.1.3.2c.1.1.2.1.3.1.2 0 .4 0 .6.1.2.1.5.2.7.1.2.2.6.2.9.2.3 0 .6 0 .8-.1.2-.1.3 0 .6-.1.1 0 .1-.1.2-.2s.2-.1.3-.1h.1c.2-.1.3-.1.5-.2.1 0 .3-.2.2-.3 0 0 .1 0 .1-.1.1-.1.1-.2.1-.3v-.2c.1-.2.3-.4.3-.6v-.1s.1-.1.1-.2v-.2-.2-.2c0-.1.1-.2.1-.3 0-.1 0-.1-.1-.2v-.2-.2c0-.1-.1-.2-.2-.2s-.2-.1-.2-.1c-.2-.1-.4-.3-.7-.2-.1 0-.1-.1-.2-.1 0-.1-.1-.2-.2-.2-.2-.1-.4 0-.5 0l-.2-.2-.1-.1-.1-.1s0-.1-.1-.1c0 0-.1-.1-.2-.1h-.1c-.4.2-.6.2-.9.1h-.4c-.1 0-.2 0-.3.1 0 0-.1 0-.2.1-.1 0-.1 0-.1.1-.1 0-.2.1-.4.1h-.2c-.2 0-.4.1-.5.2-.2.1-.3.2-.5.2-.1 0-.1.1-.2.1h-.1c-.1 0-.1 0-.2.1-.1 0-.1.1-.1.1-.1 0-.1 0-.2.1s-.1.2-.2.3v.1c0 .1-.1.1-.2.1l-.1.1c-.1 0-.1.1-.1.2v.1s-.1.1-.1.2v.5c0 .1-.1.2 0 .2 0 .1 0 .1.1.1v.1c0 .1 0 .3.1.4l.1.1.1.1c0 .1.3.5.6.5.2 0 .2.1.5.2-.1 0-.1 0 0 0zM65.2 34.8c-.1-.2-.1-.6-.1-.9 0-.5 0-.9-.2-1.3.1-.2.1-.4 0-.5V32v-.1c0-.1.1-.2 0-.3v-.3-.2c0-.1 0-.2-.1-.3v-.1V30.4v-.1-.2c0-.3-.1-.6-.1-1s0-.9-.1-1.1c0-.1-.1-.1-.1-.2 0-.2 0-.3-.1-.5 0-.2 0-.4-.1-.5 0-.1-.1-.1-.1-.2.1-.1 0-.2 0-.3v-.2-.3c0-.1 0-.1-.1-.1v-.2s0-.1-.1-.1v-.2c0-.1 0-.2-.1-.3 0-.1-.1-.2-.1-.3v-.1c0-.1 0-.2-.1-.2-.1-.1-.2-.2-.4-.2 0-.1-.1-.1-.1-.2-.2-.1-.5-.3-.7-.4-.2-.1-.3-.2-.4-.2-.2-.1-.3-.2-.4-.2l-.1-.1h-.3-.7c0-.1-.1-.2-.3-.3-.1-.1-.3-.1-.3-.1h-.1c0-.1-.1-.1-.1-.2-.1-.1-.2-.1-.3 0l-.6-.3c-.1-.1-.3-.1-.5-.1H57.5c-.1-.1-.2-.1-.3 0 0 0-.1 0-.1.1h-.2c-.1 0-.1 0-.2.1h-.1s-.1-.1-.2-.1H56.1c-1-.1-2.1-.1-3.2-.1h-3c-1 0-1.7 0-2.3.1H47.3c-.1 0-.2 0-.3.1h-.7c-.4 0-.8 0-1 .1h-.1s-.1 0-.2.1h-.2c-.1.1-.3.1-.4.2-.1.1-.3.2-.4.2h-.8c-.6.1-1.1.2-1.5.3-.4.1-.7.2-.8.2h-.2s-.1 0-.1.1h-.1s-.1 0-.1.1h-.1-.1-.1-.1-.1s-.1 0-.1.1h-.1c-.1 0-.1.1-.2.2v.1h-.2c-.1 0-.1-.1-.2-.1-.2 0-.3.2-.3.3-.1 0-.1 0-.1.1h-.2c-.2 0-.5.1-.6.2h-.2l-.1.1v.1c-.3.2-.5.4-.6.6l-.1.1c-.1.1-.2.2-.2.3l-.1.1c0 .1 0 .2.1.3l-.2.4V27l-.2.2v.2c-.1 0-.2.1-.2.2-.1.1-.1.2-.1.3v.4l-.1.1c-.1.2-.1.3-.1.4 0 .1 0 .2-.1.2 0 0 0 .1-.1.1 0 .1-.1.2-.1.3v1c0 .2 0 .3.1.4v.1c-.1.1-.1.2 0 .3-.1.4 0 .8 0 1.1V33.8c0 .1-.1.2-.1.3 0 .1 0 .1.1.2v.1c0 .5 0 .8.1 1.1v.3c0 .2 0 .3.1.5 0 .2.1.4.2.5.1.3.2.5.1.7v.2l.1.1c0 .1.1.2.1.2v.2s0 .1.1.1c0 .1.1.2.2.3 0 .1.1.2.1.3v.4c0 .1.1.2.1.3 0 .1 0 .3.1.4v.2c.1.3.1.4.1.5 0 .1.1.2.1.3 0 .1-.1.2 0 .2 0 .1.2.2.3.2v.3l.2.2c0 .2.1.3.2.4l.2.2v.1c0 .1 0 .1.1.2l.1.1c.1.2.2.3.4.4l.2.2c0 .1 0 .2.1.3.1.1.2.1.2.1 0 .1 0 .1.1.2s.2.1.2.2h.1l.1.1c.3.3.5.5.7.5l.1.1c.1.1.3.1.5.1.1 0 .2 0 .2.1h.2c.2.1.4.1.6.1h.2s.1.1.2.1h.4c.1 0 .1 0 .2-.1l.1.1h.2c.1.1.2.1.3.1h.4c.3 0 .6.1.7.1h.6c.5.1 1 .2 1.6.2H47.1c.1 0 .2 0 .2-.1H47.6c.1 0 .2.1.3.1h.1c.1 0 .3-.1.4-.1.1 0 .1-.1.2-.1H48.9c.1 0 .1 0 .2-.1 0 0 .1.1.2.1s.1 0 .2-.1h1.1c.1 0 .2.1.2 0 0 0 .1 0 .1-.1 0 0 .1.1.2.1h.4c.2.1.4 0 .5-.1h.1c.1 0 .2.1.3.1 0 .1.2.1.2.1h.1c.4 0 .6 0 .8-.1H54.1c.4 0 .7 0 .9-.2h.5c.1.1.2.1.3.1h.5c.2.1.5.1.8 0h.5c.1 0 .2.1.3.1.1 0 .2-.1.2-.1h1.5c.1 0 .2-.1.2-.1H60.1c.1 0 .1-.1.1-.1H60.8c.4-.1.5-.1.7-.3.1-.1.1-.1.2-.1s.1-.1.2-.1c.2-.1.3-.2.4-.3.2-.1.4-.2.7-.3.1 0 .1-.1.2-.1s0-.1 0-.2c0 0 .1-.1.1-.2 0 0 .1 0 .1-.1 0 0 .1-.1.1-.2 0 0 .1 0 .1-.1.1-.1.1-.2.2-.3.3-.1.4-.2.5-.4.1-.1.1-.2.1-.3.1 0 .2-.1.3-.2v-.2c.1-.2.1-.4.1-.6v-.4s0-.1.1-.1l.1-.1v-.3s.1-.1.1-.2v-.2-.1c0-.1 0-.3-.1-.3 0-.3-.1-.6-.1-.8.1 0 .1-.1.1-.2s0-.2-.1-.3v-.1-.4-.4-.1c.1-.1.1-.3 0-.5v-.1-.2c.1-.5.1-.8.1-.9v-.1-.2-.2c.2.1.3-.1.2-.2zM47 41.7h-.2c-.4 0-.7-.1-1.1-.2-.2 0-.3-.1-.5-.1l-.4-.1h-.1c-.1-.1-.3-.1-.5-.1-.1 0-.3 0-.3-.1h-.1l-.1-.1c-.1-.1-.2-.2-.3-.4 0-.2-.2-.3-.3-.3 0-.1 0-.1-.1-.2 0-.1 0-.2-.1-.3 0-.1-.1-.2-.3-.3 0-.1-.1-.2-.1-.2 0-.2-.1-.5-.3-.6 0-.3-.1-.7-.2-1 0-.1-.1-.1-.1-.1s0-.1-.1-.2c0-.1-.1-.3-.2-.4l-.1-.1s0-.1-.1-.2c0-.1-.1-.1-.1-.2-.1-.2-.2-.5-.2-.7v-.1s-.1-.1-.1-.2c-.1-.1-.1-.3-.2-.4.1-.2.1-.4 0-.6v-.1s.1-.1.1-.3c0-.2 0-.3-.1-.5 0-.1-.1-.3-.1-.4V33v-.6c0-.1 0-.1-.1-.2v-.3c0-.2.1-.4.1-.6v-.1-.4c0-.1 0-.1-.1-.2v-.2s.1 0 .1-.1v-.2-.1c0-.1.1-.1.1-.2.1-.1.1-.2 0-.3-.1-.1 0-.2.1-.4 0-.1 0-.1.1-.2V28.6s.1-.1.1-.2.1-.1.1-.2c.1 0 .1-.1.2-.1.1-.1.1-.3.1-.4 0-.1 0-.1.1-.2l.2-.2.1-.1.1-.1s.1 0 .1-.1c.1 0 .2-.1.3-.1l.1-.1h.2s.1 0 .1-.1h.1s.1 0 .2-.1c.1 0 .2-.1.4-.1.4-.1 1.6-.2 2.3-.2h.4c.3 0 .8-.1 1.3-.1H49.4c.2 0 .4-.1.6-.1.2-.1.4-.1.6-.1.6-.1 1.3 0 2 0s1.4.1 2 0h3c.1 0 .1-.1.3 0 .1.1.2.1.2.1s.1 0 .2.1c.1 0 .1.1.2.1v.2c0 .1.1.2.2.2v.6s0 .1.1.1v.5c0 .1 0 .2.1.2V28.4c.1.5.1 1 .2 1.4v.4c0 .1-.1.1-.1.2 0 .2 0 .3.1.5-.1.3 0 .6 0 .8 0 .1.1.3.1.4 0 0 0 .1-.1.1v.2c0 .1-.1.2-.1.3V34.5c0 .1.1.2.1.1V36.3c0 .1 0 .3-.1.4 0 .2-.1.3-.1.5 0 .1 0 .2.1.3v.1c-.1.2-.1.5-.1.8v.6c0 .1-.1.3-.1.6V39.9c0 .3 0 .3-.2.4-.1 0-.2.1-.2.2l-.1.1c0 .1-.1.1-.1.2-.1 0-.2 0-.3.1-.1 0-.1.1-.2.1h-.1c-.1 0-.1.1-.2.1h-1.1-.1c-.1 0-.2-.1-.3-.1-.1 0-.1 0-.1.1h-.7c-.5 0-1 0-1.4.1-.1 0-.2 0-.3.1-.2 0-.5-.1-.7-.1h-.4-.1c-.1-.1-.2-.1-.3-.1h-.1s-.1 0-.1.1c-.3-.2-.7-.1-1.1 0-.1-.1-.2-.1-.2-.1h-.2-.1c-.1-.1-.3-.1-.4-.1h-.2c-.1 0-.2 0-.3.1 0 0-.1-.1-.2-.1h-.2-.4-.4c-.1 0-.2.1-.2.2 0 0 0-.1-.1-.1 0-.1-.1-.1-.2-.1h-.3-.1c.5.7.2.7-.1.7zm10.1-19.5zM48 45.8c.1 0 .1 0 0 0z"></path><path d="M73.6 47.2v-.1c0-.1 0-.2-.1-.3 0 0 .1-.1.1-.2s0-.1-.1-.2v-.1c0-.4 0-.8-.1-1.1 0-.4-.1-.8-.1-1.2 0-.1.1-.2.1-.4-.2-.6-.1-1.5-.1-2.4 0-.7.1-1.3 0-1.8v-.1-.1c0-.4 0-.8-.1-1.2 0-.1-.1-.1-.1-.1v-.2-.1c0-.1 0-.2-.1-.2 0-.1.1-.1.1-.3v-.2c0-.3 0-.6-.1-.8.1-.2.1-.5.1-.6V34.9v-.7-.3-.3c0-.2 0-.3-.1-.4 0 0 .1-.1 0-.2 0 0 0-.1-.1-.2v-.3-.1c0-.7-.1-1.3-.2-2v-.2-.3c0-.1 0-.2-.1-.2 0-.1 0-.1-.1-.2v-.1c0-.1 0-.2-.1-.4v-.1c.1 0 .1-.1.1-.2v-.1-.2-.2-.4-.2-.1-.1c0-.1 0-.1-.1-.2 0-.1-.1-.1-.1-.2v-.1c0-.1.1-.1.1-.2s0-.2-.1-.2v-.1-.2s0-.1-.1-.2v-.3-.5c0-.1 0-.1-.1-.2v-.1-.2-.1c-.1-.4-.2-.7-.3-.9v-.1-.1c0-.1 0-.2-.1-.2v-.1-.3c-.1-.3-.1-.6-.2-1 0-.1-.1-.2-.2-.3 0-.2-.2-.3-.3-.3v-.1c0-.1 0-.2-.1-.3-.1-.1-.1-.1-.2-.1v-.1c0-.1-.1-.2-.1-.2-.1 0-.2-.1-.2-.2 0 0 0-.1-.1-.2 0-.1-.1-.2-.1-.3 0-.1-.1-.1-.1-.1v-.1c0-.1 0-.2-.1-.3-.1-.1-.2-.2-.3-.2h-.1c0-.2-.1-.3-.2-.4l-.1-.1-.2-.2-.2-.2v-.1c0-.1 0-.2-.1-.2 0 0-.1-.1-.2-.1v-.1c0-.1-.1-.2-.2-.3h-.1s-.1 0-.1-.1c-.1 0-.2-.1-.3-.1h-.2l-.1-.1c-.1-.1-.1-.2-.2-.2-.1-.1-.3-.1-.4-.1h-.1s-.1 0-.1-.1c0 0-.1-.1-.2-.1s-.2-.1-.3-.1c-.1 0-.2 0-.2-.1l-.2-.2c-.2-.1-.3-.1-.5-.1h-.1l-.2-.2c-.1 0-.1 0-.2-.1-.1 0-.2-.1-.2-.1-.1-.1-.2-.1-.3-.1-.3.1-.5 0-.6-.1-.1 0-.1-.1-.2-.1h-.2-.1c0-.1 0-.1-.1-.2.1-.2 0-.2-.1-.2l-.1-.1c-.2 0-.4 0-.5.1h-.1c-.1-.2-.3-.2-.5-.1h-.1s0-.1-.1-.1c-.1-.1-.2-.1-.3 0-.1 0-.2 0-.4-.1-.1 0-.3-.1-.4-.1H59.8c-.1 0-.1-.1-.3-.1-.1 0-.2 0-.2.1h-1c-.2 0-.4.1-.6.1-.2-.1-.5-.1-.7 0-.2-.1-.4-.2-.7-.2h-1.2c0-.1-.1-.1-.2-.1-.3 0-.5.1-.6.1h-.2c-.1 0-.2 0-.3-.1l-.2.1v-.2c-.1 0-.2.1-.3.1h-.2c-.2 0-.4 0-.6.1-.1-.1-.2-.1-.3-.1h-.8c-.1-.1-.3 0-.4 0 0 0-.1 0-.1-.1l-.1-.1h-.3-.4c-.1 0-.2 0-.3-.1h-1.9-.4c-.1 0-.1 0-.1.1-.3 0-.5 0-.7.1-.1-.3-.4-.3-.6-.3H46l-.1-.1h-.2c-.3.1-.8.1-1.3.1-.5-.1-1-.1-1.4.1-.2-.1-.5-.1-.8-.2-.1 0-.2 0-.3.1h-.1-.1c-.1 0-.2-.1-.3-.1h-1.7-.2-.1c-.3 0-.5 0-.8.1-.1 0-.2 0-.2.1 0 0-.1 0-.2.1h-2.1c-.2 0-.5.1-.7.1-.2 0-.3.1-.5.1h-.7c-.5.1-.8.2-1 .4H33c-.1 0-.1.1-.2.1s-.2.1-.3.2c-.1.1-.3.2-.4.4-.1.1-.3.4-.4.4-.2 0-.2.1-.3.2l-.2.2c-.1.1-.1.2-.2.2s-.2.1-.2.2 0 .1-.1.2-.1.2-.2.3c-.2.2-.3.4-.4.6v.2l-.1.1c-.1.1-.1.2-.1.3-.1 0-.1.1-.2.2 0 .1-.1.2-.1.3v.1l-.1.1s-.1.1-.1.2-.1.2-.1.2v.1l-.1.1v.1l-.1.1c0 .1-.1.2-.1.2v.1c-.1.2-.1.4-.2.6l.1.2s-.1 0-.1.1c-.1.1-.1.3-.1.4v.1c-.1.2-.1.3-.2.5V22.4c0 .1-.1.2 0 .3-.1.1-.1.2-.1.3 0 0-.1.1-.1.2s-.1.2-.1.3v.6c0 .2 0 .6-.1.7-.1 0-.1.1-.1.2 0 0 0 .1.1.1 0 .1 0 .2-.1.4 0 .2-.1.5-.1.8 0 .1 0 .1.1.2v.1c-.1.2 0 .4 0 .5V27.7c0 .5-.1 1-.1 1.5s0 1-.1 1.5l-.1.1c0 .1 0 .2.1.3 0 .1 0 .2-.1.3v.1l-.1.1v.8l-.1.1v.3h-.1c-.1.1-.1.3-.1.4v.1c-.2 1-.2 2.4-.2 3.6 0 .1 0 .2.1.3-.2 0-.2.1-.2.2V37.7c0 .1 0 .2.1.2l-.1.1c0 .1 0 .2.1.3V38.6c0 .2 0 .4.1.5v.2c0 .1-.1.2-.1.3 0 .1 0 .2.1.3v.5c-.1 0-.1.1-.1.2V40.9c0 .1.1.1.1.2v1c0 .1 0 .3-.1.3v.2s0 .1.1.1v.1c0 .1-.1.1 0 .2v4.5c0 1.5 0 3.1-.1 4.5v1l-.1.1v.6c0 .2 0 .4.1.6v.1l-.1.1c0 .1 0 .2.1.3v.4c0 .1-.1.1-.1.2s0 .2.1.2v1.5c0 1.3 0 2.5-.1 3.6l-.1.1c0 .1 0 .2.1.3v.2l-.1.1c0 .1 0 .2.1.3 0 .1-.1.2 0 .3V63.6c.1.7.1 1.4.1 2.2v.3c-.2.2-.1.5 0 .9v.1l-.1.1c-.1.3 0 .7 0 .9V68.7c.1 2.1.1 4 .3 5.9 0 .1 0 .1.1.2v.4c0 .4.1.8.1 1.2 0 .2 0 .4.1.6v.2c0 .1-.1.2 0 .2 0 .1 0 .1.1.2V77.9c0 .3.1.6.2.8v.4s0 .2.1.2v.1c0 .2 0 .3.2.5.1.1.2.3.3.4.2.3.3.6.6.7 0 .2.2.3.3.4 0 .1 0 .1.1.2 0 0 .1.1.2.1.1.1.2.2.4.3 0 0 0 .1.1.1s.2.1.3.1c.1 0 .1 0 .2.1 0 0 .1 0 .1.1l.2.2s.1.1.2.1h.1l.2.2c.2.1.4.1.5.2.1 0 .2 0 .2.1s.1.1.2.2h.3c.1 0 .2.1.3.1.1.1.3.1.4.1l.1.1c.1.1.3.1.4.2.1.1.3.1.3.2.1.1.1.1.4.2H34.9c.1 0 .1 0 .1.1s.1.1.1.1H35.4l.2.2c.1 0 .2.1.3.1h.1c.1.1.1.1.3.1l.1.1H36.7l.1.1c.1 0 .2.1.3.1h.1c.1.1.2.1.3.1h.1l.1.1h.5s.1 0 .1.1c.1 0 .1.1.2.1.2.1.5.1.7.1.1 0 .3 0 .4.1 0 0 .1.1.3.1 0 .1.2.1.2.1h.2c0 .1.2.1.2.1h.7l.1.1c.3.1.7.1 1.1.2.3 0 .6.1.7.1l.1.1c.1 0 .3.1.4.1h.2c.4.1.7.1 1.1.1.5 0 1 .1 1.3.2.2.1.3.1.5.1 0 0 .1 0 .1.1h.1c.1 0 .2 0 .3-.1h.2c.1 0 .2 0 .2.1h1c.1 0 .2.1.3.1.1 0 .2.1.2.1h.2c.2 0 .2 0 .3.1h.1c.3.1.6.1.8.1h.3c.3 0 .7.1 1 .1.3 0 .5 0 .7.1 0 0 .1.1.2.1.2.1.4.1.7.1h.3c0 .1.1.1.2.1h.2c0 .1.1.1.2.1.3 0 .4 0 .5-.1l.1.1c.5.1 1.2.2 1.8.3.1 0 .2 0 .3-.1 0 0 .1.1.2.1h.7c.2 0 .3-.1.3-.2.3-.1.6 0 1 0s.8.1 1.1 0c.1 0 .2-.1.3-.1.1 0 .1.1.2.1h.1c.1 0 .1 0 .2-.1.2 0 .5-.1.6-.1.1 0 .2 0 .2-.1.1 0 .1 0 .2-.1.1 0 .2-.1.4-.1.1-.1.4-.2.4-.2.2 0 .3-.1.3-.2.1 0 .2 0 .2-.1.1 0 .1 0 .2-.1.1 0 .2-.1.2-.1h.1l.4-.1h.1c.1 0 .2 0 .2-.1.1 0 .1 0 .3-.1l.3-.3h.1c.1 0 .1 0 .2-.1s.2-.1.2-.2h.1c.3 0 .4-.2.5-.3 0 0 0-.1.1-.1 0 0 .1 0 .1-.1.1 0 .2 0 .3-.1.1-.1.1-.2.2-.3h.2c.1 0 .1-.1.2-.2s.1-.2.2-.3c.1 0 .2-.1.3-.2.2-.1.2-.2.3-.3 0 0 0-.1 0 0 0 0 .1 0 .1-.1.1-.1.1-.2.1-.3l.1-.1.1-.1s0-.1.1-.1l.1-.1c.1-.1.4-.2.4-.4V83c0-.1.1-.2.1-.3h.1c.1 0 .1-.1.1-.2.1-.1.1-.2.1-.4V82c.1 0 .1-.1.2-.2.1-.2.2-.4.2-.7 0-.1.1-.4.1-.4.1-.1.1-.2.1-.3v-.1-.1l.1-.3.1-.1v-.3-.1l.1-.1c0-.1.1-.2.1-.3 0-.1.1-.3.1-.3.1-.1.1-.2.1-.3v-.2c0-.1.1-.3.1-.5v-.1-.1-.1-.1-.4c0-.4.1-.7.1-1.1 0-.1 0-.1-.1-.2v-.1-.2-.1c0-.1.1-.2.1-.3v-.2c0-.2 0-.3.1-.4v-.2c0-.1 0-.1.1-.2v-.1c0-.1.1-.3.2-.4 0-.1.1-.2.1-.3V72.8v-.2l.1-.1c.1-.1.1-.2.1-.3.1-.1.1-.1.1-.2v-.1-.1c.1-.4.1-1 .1-1.6 0-.8.1-1.7.2-2.3v-.2-.1c0-.1.1-.2.1-.3 0-.2.1-.4.1-.6v-.4-.1-.1c.1-.1.1-.2.1-.3v-.1c.1-.1.1-.2.1-.3v-.1c0-.1.1-.2.1-.4v-.1c0-.1.1-.2 0-.4v-.1-.2-.4-.1c.1 0 .1-.1.1-.2 0-.4-.1-.8-.1-.9v-.1c0-.1.1-.2.1-.3v-.3-.2c.1 0 .1-.1.1-.2v-.1c0-.1 0-.1-.1-.1v-.1-.3-.1-.2c0-.5.1-.9.1-1.3v-.6-.4-.3l.1-.1v-.4c0-.4.1-.6.1-.9V56c0-.2 0-.2.1-.3.1-.1.1-.4 0-.7 0 0 0-.1.1-.1v-.3c.1-.6.1-1.2.1-2v-.3-.1c0-.1.1-.1.1-.2v-.2-.2-1.3-.2c0-.1.1-.1.1-.2v-.1-.2-.1-.1-.5c.2-.8.2-1.4.1-1.7zm-5.8 4.2v.9c0 .2-.1.4 0 .7 0 0 0 .1.1.1 0 .3 0 .7-.1 1.1 0 .3-.1.6-.1 1v.4c0 .5-.1 1.1-.1 1.5l-.1.6v.5c-.1.1-.1.2-.1.3 0 0-.1.1-.1.2v.2c0 .1 0 .2-.1.2v.4c-.1.1-.1.2-.1.5v.1c0 .1 0 .3-.1.5v.3c-.1.1-.1.2-.1.2v.1c0 .1-.1.3-.1.6v.2c0 .1 0 .2.1.3-.1.1-.1.1-.1.2v1.3c0 .5 0 1.1-.1 1.6v.1c0 .1 0 .2-.1.3v.1s-.1.1-.1.2c0 .2-.1.3-.1.5v.2c-.1.1-.1.2-.1.2v.2c0 .1 0 .3-.1.4-.1.4-.2.9-.2 1.4v1.9l-.1.1v.3c0 .1 0 .3-.1.6 0 .1 0 .2-.1.2-.1.2-.2.5-.1.9 0 .1 0 .1.1.2 0 0-.1.1-.1.2 0 .2 0 .3-.1.4-.1.1-.1.2-.1.2v.1c-.1.3-.2 1.1-.2 1.2v.2c-.1.1-.1.2 0 .3 0 .1 0 .2-.1.3v.1s-.1.1-.1.2v.3l-.1.1c0 .2-.1.5-.1.7v.5c-.1.1-.1.2-.1.2 0 .2-.1.4-.1.6 0 .1-.1.3-.1.4 0 .1 0 .3-.1.4v.1c-.1.1-.1.2-.1.3 0 .1-.1.2-.1.3v.1c0 .1-.1.3-.1.5 0 .1-.1.3-.1.4v.2c0 .2-.1.3-.2.5-.1.1-.1.1-.1.2 0 .2-.4.5-.8.7-.1 0-.2 0-.3.1l-.1.1c-.1.1-.2.1-.3.1-.1.1-.3.1-.4.2 0 0-.1 0-.1.1-.1 0-.1.1-.2.1s-.2 0-.2.1c-.1 0-.2.1-.2.1s-.1 0-.3.1c-.3.1-.8.1-1.2.2h-.2c-.1 0-.3.1-.5.1h-.2c-.1-.1-.3-.1-.4 0h-1.1c-.1 0-.3-.1-.4-.1-.1 0-.2-.1-.4-.1-.4-.1-.7-.1-1-.2h-.3-.2c-.4-.1-1.2-.2-1.8-.3-.3 0-.6-.1-.9-.1-.1 0-.2-.1-.4-.1h-.1c-.2 0-.4 0-.6-.1 0 0-.1-.1-.3-.1-.1 0-.1 0-.2.1-.1 0-.2 0-.2-.1-.1 0-.3-.1-.4-.1-.3-.1-.6-.1-.9-.1-.4 0-.8-.1-1.1-.2h-.1c-.1 0-.2-.1-.2-.1-.1 0-.2 0-.2.1h-.1c-.1-.1-.2-.1-.2-.1 0-.1-.1-.1-.2-.1s-.3 0-.5-.1h-.4c-.4-.1-.7-.1-1.1-.2l-.4-.1c-.1 0-.3-.1-.4-.1-.1 0-.3-.1-.4-.1H43c-.1-.1-.2-.1-.3-.1 0 0-.1-.1-.2-.1h-.3-.1c-.1-.1-.2-.1-.2-.1H41.6h-.2s-.1 0-.2-.1c-.2-.1-.5-.2-.7-.2h-.1-.1-.1c-.1-.1-.2-.1-.2-.1l-.1-.1h-.7c-.1 0-.1 0-.2-.1H38.7c-.1 0-.2-.1-.4-.1-.1 0-.1 0-.2-.1-.2-.1-.3-.1-.5-.1-.1 0-.1 0-.2-.1-.1 0-.1-.1-.2-.1h-.1c-.1 0-.2-.1-.3-.1 0-.1-.1-.1-.2-.1 0 0-.1-.1-.2-.1 0 0-.1-.1-.2-.1-.1-.1-.3-.1-.4-.2h-.2-.1c0-.1-.1-.1-.1-.2-.1-.1-.2-.1-.3-.1-.1-.1-.1-.1-.3-.1h-.1l-.1-.1c-.1 0-.1-.1-.2-.1-.2-.1-.4-.1-.6-.2l-.1-.1c-.1-.1-.2-.2-.4-.3-.1-.4-.2-.7-.4-1l-.1-.3c0-.1 0-.1-.1-.2V77v-.1-.1c0-.1 0-.2-.1-.3v-.2-.3c0-.1 0-.2-.1-.3V75.4 75c0-.3 0-.5-.1-.8 0 0 0-.1-.1-.2l.1-.1v-.1c.1 0 .2-.1.2-.2v-.1c0-.1-.1-.2-.2-.2v-.1c0-.1.1-.3-.1-.4v-.1-.1-.1c.1-.2 0-.3 0-.4v-.2c0-.1 0-.1-.1-.2.1-.1.1-.3 0-.4v-1-.3-.1-.2-.2-.1c.1-.1.1-.3.1-.5v-.1-.2c0-.1 0-.1-.1-.2v-.1c0-.1.1-.1.1-.2s0-.1-.1-.2v-.8-1.2l.1-.1c0-.1 0-.2-.1-.3V65v-.4-.1-.4-.2-1.1-.8-.1-.2-.1-.2c0-.2 0-.4-.1-.6v-.2-.1-.3c.1-.1.1-.2.1-.4.1-.2 0-.4-.1-.6V59s0-.2.1-.2c0-.1.1-.2.1-.3 0-.2-.1-.3-.1-.4 0-.1.1-.2.1-.4 0 0 0-.1-.1-.1l.1-.1v-.2c0-.1.1-.2 0-.3v-.4-.3-.2-.5s0-.1-.1-.1c0-.1.1-.1.1-.2s0-.1-.1-.1V55c0-.1 0-.2.1-.3v-.2-.1-.2V53.9c0-.4.1-.9 0-1.3v-.1s0-.1.1-.1v-.3-.2-.2c0-.3.1-.7 0-1 0-.1 0-.1-.1-.2v-.1c0-.1.1-.2.1-.3V49.8v-.3-.1c.1-.2.1-.7.1-1 0-.1 0-.2-.1-.2v-.1c0-.1.1-.1.1-.3v-.1-.1-.6c0-.2-.1-.5 0-.8 0 0 .1-.1.1-.2s0-.1-.1-.2v-.1c.1-.2.2-.7.1-1.8v-.1-.1-.3-.1c0-.1.1-.2.1-.3v-.1-.1-.1-.2c0-.1-.1-.3-.1-.3.1-.1.1-.2.1-.3 0-.1-.1-.3-.2-.4-.1-.1-.1-.3-.2-.4v-.4c.1 0 .2-.1.2-.1.1-.1.1-.3 0-.6v-.3c0-.1.1-.2.1-.3 0-.1 0-.1-.1-.2.1 0 .1-.1.1-.2v-.1-.1c0-.1-.1-.2-.1-.3 0-.1-.1-.1-.1-.1s.1-.1.1-.2 0-.2-.1-.2c0-.1.1-.1.1-.2s0-.3-.1-.5c0-.1-.1-.2-.1-.3v-.1c.1-.1.1-.3.2-.5v-.1c-.2-.8 0-2 .1-3v-.1-.2c.1 0 .1-.1.1-.2v-.2s.1-.1 0-.2c0-.1 0-.1-.1-.2v-.3c.1-.1.1-.2.2-.4v-.4-.3c0-.1.1-.1.1-.2 0-.2 0-.4.1-.8s.1-.8.1-1.2l.1-.5V28v-.3c.1-.1.1-.3.1-.4v-.2c0-.1.1-.1.1-.1v-.4-.3s.1-.1.1-.2 0-.2-.1-.3v-.1c.1-.1.1-.2.1-.3v-.1-.2c0-.1 0-.2.1-.4v-.5c0-.2 0-.4.1-.6 0-.1.1-.2.2-.3.1-.1.1-.2.2-.3v-.2c.1 0 .1-.1.2-.1 0-.1.1-.2.1-.3 0-.1 0-.1.1-.2.1 0 .1-.1.2-.3 0 0 0-.1.1-.2 0-.1.1-.1.1-.2s.1-.2.1-.3v-.1c.1 0 .1-.1.1-.2.1-.1.1-.2.1-.3 0 0 .1 0 .1-.1l.1-.1.2-.2c.1-.1.1-.3.1-.4.1 0 .1-.1.1-.2.2 0 .3-.2.3-.3v-.1l.1-.1c.1 0 .2 0 .3-.2.1-.2.2-.2.2-.2l.1-.1h.3s.1 0 .1-.1c.1 0 .1-.1.2-.1.5.1 1 0 1.8-.2.1 0 .2.1.3.1.1 0 .2-.1.3-.1l.1-.1c.1 0 .1.1.3.1.1 0 .1 0 .2-.1h.5c.1.1.2.1.3 0h.5c.2 0 .4-.1.6-.1h.5c.2 0 .4 0 .6.1h.3c.4.1 1 .1 1.7.1h.6c.1 0 .1.1.2.1s.2-.1.2-.1h.1c.1 0 .1.1.2.1s.2 0 .3-.1c.1 0 .2.1.3.1 0 0 .1 0 .1-.1h1.2s.1.1.2.1h.2c.1 0 .2-.1.4-.1.1.1.2.1.4 0H50.4c.1.1.2.2.3.1.1.1.2.1.2.1l.1.1c.1 0 .2 0 .4.1h.2c0 .1.1.1.2.1h.4l.1.1c.1.1.2.1.3.2h.5c.2.1.6.1.9 0 .1.1.2.1.3.1h.1c.1 0 .2 0 .3-.1h.3c.4 0 .8.1 1 0h.2c.1.1.2.1.2.1h1.1c.1 0 .3 0 .4.1.2 0 .4.1.6.1h.7s.1.1.2.1H60.6c.1.1.1.2.2.2H61.4c.1.1.2.1.2.1.2 0 .2 0 .4.1 0 .1.1.1.2.1h.4c.1 0 .2.1.3.1.1 0 .2 0 .2.1s.1.1.2.1h.2-.1c0 .1.1.1.2.1s.2.1.2.1h.1l.1.1s.1.1.2.1.2.1.2.1c0 .1 0 .2.1.3.1.1.1.1.2.1 0 .1 0 .2.1.3 0 .1.1.1.2.2v.1c0 .1.1.2.1.2s0 .1.1.1c0 .1.1.1.1.3 0 .1.1.2.1.2 0 .2.2.3.2.3 0 .1 0 .2.1.3l.1.1c0 .1 0 .1.1.2 0 .1 0 .1.1.2h.1v.2c0 .1 0 .3.1.4 0 0 0 .1.1.1 0 .1 0 .3.2.4-.1.3 0 .6.1.8 0 .1 0 .1.1.2v.1c0 .1 0 .2.1.3v.1c0 .1.1.2.1.4-.1.1-.1.1-.1.3 0 .1 0 .1.1.2v.1c0 .2.1.4.2.5 0 0 0 .1.1.1-.1.4 0 .8.1 1.2l.1.2v.4c0 .1-.1.2-.1.4 0 .1 0 .2.1.2v1.6c0 .6.1 1.3.2 1.9l.1.5c0 .4.1.7.1 1.1V37.6c0 .1 0 .1.1.2v.5c0 .2-.1.4 0 .9 0 .3 0 .5.1 1V40.5c0 .1.1.2.1.2l-.1.1s-.1.1-.1.2v.8c0 .2 0 .5.1.7v.2c0 .3 0 .5.1.6-.1.1-.2.3-.1.6v.1c0 .1-.1.3-.1.5v.1c0 .1 0 .2.1.2v.1c0 .1-.1.2-.1.3 0 .1.1.1.1.2v1.1c0 .2 0 .5.1.8 0 .3.1.6.1.9v.6s0 .1.1.1c-.1.1 0 .2 0 .4v.1c0 .1-.1.1-.1.2v1.1c-.1 0-.2.1-.2.2v.3l.1.1v.2c0 .1 0 .1.1.1v.5c-.5-.7-.4-.7-.4-.7zm-35.8.7zm7.9 33.6z"></path></g><!----></svg>